<mxfile host="app.diagrams.net" modified="2024-01-25T06:03:57.945Z" agent="Mozilla/5.0 (Windows NT 10.0; Win64; x64) AppleWebKit/537.36 (KHTML, like Gecko) Chrome/120.0.0.0 Safari/537.36" etag="Pci7nSFSyQJaDrBCQlpr" version="23.0.1" type="device">
  <diagram name="Page-1" id="CT3OghTs6arfDSJPOl5c">
    <mxGraphModel dx="1647" dy="839" grid="1" gridSize="10" guides="1" tooltips="1" connect="1" arrows="1" fold="1" page="1" pageScale="1" pageWidth="1100" pageHeight="850" background="#FFFFFF" math="0" shadow="0">
      <root>
        <mxCell id="0" />
        <mxCell id="1" parent="0" />
        <mxCell id="-LqVjnXFQ1boyWuIeR_t-2" value="" style="endArrow=none;dashed=1;html=1;rounded=0;fillColor=#dae8fc;strokeColor=#6c8ebf;" edge="1" parent="1">
          <mxGeometry width="50" height="50" relative="1" as="geometry">
            <mxPoint x="80" y="40" as="sourcePoint" />
            <mxPoint x="840" y="40" as="targetPoint" />
          </mxGeometry>
        </mxCell>
        <mxCell id="-LqVjnXFQ1boyWuIeR_t-3" value="" style="endArrow=none;dashed=1;html=1;rounded=0;fillColor=#dae8fc;strokeColor=#6c8ebf;" edge="1" parent="1">
          <mxGeometry width="50" height="50" relative="1" as="geometry">
            <mxPoint x="80" y="560" as="sourcePoint" />
            <mxPoint x="840" y="560" as="targetPoint" />
          </mxGeometry>
        </mxCell>
        <mxCell id="-LqVjnXFQ1boyWuIeR_t-4" value="" style="endArrow=none;dashed=1;html=1;rounded=0;fillColor=#dae8fc;strokeColor=#6c8ebf;" edge="1" parent="1">
          <mxGeometry width="50" height="50" relative="1" as="geometry">
            <mxPoint x="80" y="560" as="sourcePoint" />
            <mxPoint x="80" y="40" as="targetPoint" />
          </mxGeometry>
        </mxCell>
        <mxCell id="-LqVjnXFQ1boyWuIeR_t-5" value="" style="endArrow=none;dashed=1;html=1;rounded=0;fillColor=#dae8fc;strokeColor=#6c8ebf;" edge="1" parent="1">
          <mxGeometry width="50" height="50" relative="1" as="geometry">
            <mxPoint x="840" y="560" as="sourcePoint" />
            <mxPoint x="840" y="40" as="targetPoint" />
          </mxGeometry>
        </mxCell>
        <mxCell id="-LqVjnXFQ1boyWuIeR_t-6" value="VPC" style="sketch=0;outlineConnect=0;gradientColor=none;html=1;whiteSpace=wrap;fontSize=12;fontStyle=0;shape=mxgraph.aws4.group;grIcon=mxgraph.aws4.group_vpc;strokeColor=#879196;fillColor=none;verticalAlign=top;align=left;spacingLeft=30;fontColor=#879196;dashed=0;" vertex="1" parent="1">
          <mxGeometry x="120" y="80" width="680" height="440" as="geometry" />
        </mxCell>
        <mxCell id="-LqVjnXFQ1boyWuIeR_t-7" value="" style="shape=image;html=1;verticalAlign=top;verticalLabelPosition=bottom;labelBackgroundColor=#ffffff;imageAspect=0;aspect=fixed;image=https://cdn4.iconfinder.com/data/icons/geosm-e-commerce/18/globe-128.png" vertex="1" parent="1">
          <mxGeometry x="80" y="40" width="40" height="40" as="geometry" />
        </mxCell>
        <mxCell id="-LqVjnXFQ1boyWuIeR_t-8" value="N. Virginia us-east-1" style="text;html=1;strokeColor=none;fillColor=none;align=center;verticalAlign=middle;whiteSpace=wrap;rounded=0;" vertex="1" parent="1">
          <mxGeometry x="120" y="45" width="130" height="30" as="geometry" />
        </mxCell>
        <mxCell id="-LqVjnXFQ1boyWuIeR_t-12" value="Public subnet" style="points=[[0,0],[0.25,0],[0.5,0],[0.75,0],[1,0],[1,0.25],[1,0.5],[1,0.75],[1,1],[0.75,1],[0.5,1],[0.25,1],[0,1],[0,0.75],[0,0.5],[0,0.25]];outlineConnect=0;gradientColor=none;html=1;whiteSpace=wrap;fontSize=12;fontStyle=0;container=1;pointerEvents=0;collapsible=0;recursiveResize=0;shape=mxgraph.aws4.group;grIcon=mxgraph.aws4.group_security_group;grStroke=0;strokeColor=#7AA116;fillColor=#F2F6E8;verticalAlign=top;align=left;spacingLeft=30;fontColor=#248814;dashed=0;" vertex="1" parent="1">
          <mxGeometry x="160" y="120" width="200" height="320" as="geometry" />
        </mxCell>
        <mxCell id="-LqVjnXFQ1boyWuIeR_t-16" value="" style="outlineConnect=0;dashed=0;verticalLabelPosition=bottom;verticalAlign=top;align=center;html=1;shape=mxgraph.aws3.ec2;fillColor=#fa6800;strokeColor=#C73500;fontColor=#000000;" vertex="1" parent="-LqVjnXFQ1boyWuIeR_t-12">
          <mxGeometry x="61.75" y="59" width="76.5" height="93" as="geometry" />
        </mxCell>
        <mxCell id="-LqVjnXFQ1boyWuIeR_t-17" value="EC2-Linux" style="text;html=1;align=center;verticalAlign=middle;resizable=0;points=[];autosize=1;strokeColor=none;fillColor=none;fontSize=14;" vertex="1" parent="-LqVjnXFQ1boyWuIeR_t-12">
          <mxGeometry x="55" y="160" width="90" height="30" as="geometry" />
        </mxCell>
        <mxCell id="-LqVjnXFQ1boyWuIeR_t-23" value="" style="outlineConnect=0;dashed=0;verticalLabelPosition=bottom;verticalAlign=top;align=center;html=1;shape=mxgraph.aws3.vpc_nat_gateway;fillColor=#d80073;strokeColor=#A50040;fontColor=#ffffff;" vertex="1" parent="-LqVjnXFQ1boyWuIeR_t-12">
          <mxGeometry x="89.25" y="240" width="49" height="52" as="geometry" />
        </mxCell>
        <mxCell id="-LqVjnXFQ1boyWuIeR_t-44" value="&lt;font style=&quot;font-size: 14px;&quot;&gt;NAT Gateway&lt;/font&gt;" style="text;html=1;align=center;verticalAlign=middle;resizable=0;points=[];autosize=1;strokeColor=none;fillColor=none;" vertex="1" parent="-LqVjnXFQ1boyWuIeR_t-12">
          <mxGeometry x="10" y="220" width="110" height="30" as="geometry" />
        </mxCell>
        <mxCell id="-LqVjnXFQ1boyWuIeR_t-45" value="Security group" style="fillColor=none;strokeColor=#DD3522;verticalAlign=top;fontStyle=0;fontColor=#DD3522;whiteSpace=wrap;html=1;" vertex="1" parent="-LqVjnXFQ1boyWuIeR_t-12">
          <mxGeometry x="47.5" y="39.5" width="105" height="120.5" as="geometry" />
        </mxCell>
        <mxCell id="-LqVjnXFQ1boyWuIeR_t-15" value="Private subnet" style="points=[[0,0],[0.25,0],[0.5,0],[0.75,0],[1,0],[1,0.25],[1,0.5],[1,0.75],[1,1],[0.75,1],[0.5,1],[0.25,1],[0,1],[0,0.75],[0,0.5],[0,0.25]];outlineConnect=0;gradientColor=none;html=1;whiteSpace=wrap;fontSize=12;fontStyle=0;container=1;pointerEvents=0;collapsible=0;recursiveResize=0;shape=mxgraph.aws4.group;grIcon=mxgraph.aws4.group_security_group;grStroke=0;strokeColor=#00A4A6;fillColor=#E6F6F7;verticalAlign=top;align=left;spacingLeft=30;fontColor=#147EBA;dashed=0;" vertex="1" parent="1">
          <mxGeometry x="560" y="120" width="200" height="320" as="geometry" />
        </mxCell>
        <mxCell id="-LqVjnXFQ1boyWuIeR_t-18" value="" style="outlineConnect=0;dashed=0;verticalLabelPosition=bottom;verticalAlign=top;align=center;html=1;shape=mxgraph.aws3.ec2;fillColor=#647687;fontColor=#ffffff;strokeColor=#314354;" vertex="1" parent="-LqVjnXFQ1boyWuIeR_t-15">
          <mxGeometry x="61.75" y="59" width="76.5" height="93" as="geometry" />
        </mxCell>
        <mxCell id="-LqVjnXFQ1boyWuIeR_t-20" value="EC2-Linux" style="text;html=1;align=center;verticalAlign=middle;resizable=0;points=[];autosize=1;strokeColor=none;fillColor=none;fontSize=14;" vertex="1" parent="-LqVjnXFQ1boyWuIeR_t-15">
          <mxGeometry x="55" y="160" width="90" height="30" as="geometry" />
        </mxCell>
        <mxCell id="-LqVjnXFQ1boyWuIeR_t-46" value="Security group" style="fillColor=none;strokeColor=#DD3522;verticalAlign=top;fontStyle=0;fontColor=#DD3522;whiteSpace=wrap;html=1;" vertex="1" parent="-LqVjnXFQ1boyWuIeR_t-15">
          <mxGeometry x="47.5" y="39.5" width="105" height="120.5" as="geometry" />
        </mxCell>
        <mxCell id="-LqVjnXFQ1boyWuIeR_t-21" value="" style="endArrow=classic;startArrow=classic;html=1;rounded=0;" edge="1" parent="1" source="-LqVjnXFQ1boyWuIeR_t-18" target="-LqVjnXFQ1boyWuIeR_t-16">
          <mxGeometry width="50" height="50" relative="1" as="geometry">
            <mxPoint x="420" y="260" as="sourcePoint" />
            <mxPoint x="470" y="210" as="targetPoint" />
          </mxGeometry>
        </mxCell>
        <mxCell id="-LqVjnXFQ1boyWuIeR_t-37" style="edgeStyle=orthogonalEdgeStyle;rounded=0;orthogonalLoop=1;jettySize=auto;html=1;exitX=0.145;exitY=0.145;exitDx=0;exitDy=0;exitPerimeter=0;curved=1;" edge="1" parent="1" source="-LqVjnXFQ1boyWuIeR_t-22" target="-LqVjnXFQ1boyWuIeR_t-16">
          <mxGeometry relative="1" as="geometry">
            <Array as="points">
              <mxPoint x="444" y="480" />
              <mxPoint x="350" y="480" />
              <mxPoint x="350" y="226" />
            </Array>
          </mxGeometry>
        </mxCell>
        <mxCell id="-LqVjnXFQ1boyWuIeR_t-38" style="edgeStyle=orthogonalEdgeStyle;rounded=0;orthogonalLoop=1;jettySize=auto;html=1;exitX=0;exitY=0.5;exitDx=0;exitDy=0;exitPerimeter=0;curved=1;" edge="1" parent="1" source="-LqVjnXFQ1boyWuIeR_t-22" target="-LqVjnXFQ1boyWuIeR_t-23">
          <mxGeometry relative="1" as="geometry">
            <Array as="points">
              <mxPoint x="438" y="490" />
              <mxPoint x="274" y="490" />
            </Array>
          </mxGeometry>
        </mxCell>
        <mxCell id="-LqVjnXFQ1boyWuIeR_t-22" value="" style="outlineConnect=0;dashed=0;verticalLabelPosition=bottom;verticalAlign=top;align=center;html=1;shape=mxgraph.aws3.internet_gateway;fillColor=#F58534;gradientColor=none;" vertex="1" parent="1">
          <mxGeometry x="437.5" y="500" width="45" height="42" as="geometry" />
        </mxCell>
        <mxCell id="-LqVjnXFQ1boyWuIeR_t-24" value="" style="shadow=0;dashed=0;html=1;strokeColor=none;fillColor=#4495D1;labelPosition=center;verticalLabelPosition=bottom;verticalAlign=top;align=center;outlineConnect=0;shape=mxgraph.veeam.portal_admin;" vertex="1" parent="1">
          <mxGeometry x="600" y="600" width="60" height="58.8" as="geometry" />
        </mxCell>
        <mxCell id="-LqVjnXFQ1boyWuIeR_t-26" value="&lt;font style=&quot;font-size: 14px;&quot;&gt;Administrator&amp;nbsp;&lt;/font&gt;" style="text;html=1;align=center;verticalAlign=middle;resizable=0;points=[];autosize=1;strokeColor=none;fillColor=none;" vertex="1" parent="1">
          <mxGeometry x="575" y="670" width="110" height="30" as="geometry" />
        </mxCell>
        <mxCell id="-LqVjnXFQ1boyWuIeR_t-27" value="" style="edgeStyle=orthogonalEdgeStyle;rounded=0;orthogonalLoop=1;jettySize=auto;entryX=0.855;entryY=0.855;entryDx=0;entryDy=0;entryPerimeter=0;curved=1;fontFamily=Helvetica;html=1;" edge="1" parent="1" source="-LqVjnXFQ1boyWuIeR_t-24" target="-LqVjnXFQ1boyWuIeR_t-22">
          <mxGeometry relative="1" as="geometry" />
        </mxCell>
        <mxCell id="-LqVjnXFQ1boyWuIeR_t-29" value="&lt;font style=&quot;font-size: 14px;&quot;&gt;Port&amp;nbsp; 22&lt;/font&gt;" style="text;html=1;align=center;verticalAlign=middle;resizable=0;points=[];autosize=1;strokeColor=none;fillColor=none;" vertex="1" parent="1">
          <mxGeometry x="500" y="590" width="70" height="30" as="geometry" />
        </mxCell>
        <mxCell id="-LqVjnXFQ1boyWuIeR_t-30" value="" style="verticalLabelPosition=bottom;sketch=0;html=1;fillColor=#282828;strokeColor=none;verticalAlign=top;pointerEvents=1;align=center;shape=mxgraph.cisco_safe.people_places_things_icons.icon2;" vertex="1" parent="1">
          <mxGeometry x="270" y="600" width="60" height="60" as="geometry" />
        </mxCell>
        <mxCell id="-LqVjnXFQ1boyWuIeR_t-31" value="" style="verticalLabelPosition=bottom;sketch=0;html=1;fillColor=#282828;strokeColor=none;verticalAlign=top;pointerEvents=1;align=center;shape=mxgraph.cisco_safe.people_places_things_icons.icon2;" vertex="1" parent="1">
          <mxGeometry x="210" y="598.8" width="60" height="60" as="geometry" />
        </mxCell>
        <mxCell id="-LqVjnXFQ1boyWuIeR_t-32" value="" style="verticalLabelPosition=bottom;sketch=0;html=1;fillColor=#282828;strokeColor=none;verticalAlign=top;pointerEvents=1;align=center;shape=mxgraph.cisco_safe.people_places_things_icons.icon2;" vertex="1" parent="1">
          <mxGeometry x="210" y="660" width="60" height="60" as="geometry" />
        </mxCell>
        <mxCell id="-LqVjnXFQ1boyWuIeR_t-33" value="" style="verticalLabelPosition=bottom;sketch=0;html=1;fillColor=#282828;strokeColor=none;verticalAlign=top;pointerEvents=1;align=center;shape=mxgraph.cisco_safe.people_places_things_icons.icon2;" vertex="1" parent="1">
          <mxGeometry x="270" y="660" width="60" height="60" as="geometry" />
        </mxCell>
        <mxCell id="-LqVjnXFQ1boyWuIeR_t-34" value="&lt;font style=&quot;font-size: 14px;&quot;&gt;People&lt;/font&gt;" style="text;html=1;align=center;verticalAlign=middle;resizable=0;points=[];autosize=1;strokeColor=none;fillColor=none;" vertex="1" parent="1">
          <mxGeometry x="240" y="730" width="70" height="30" as="geometry" />
        </mxCell>
        <mxCell id="-LqVjnXFQ1boyWuIeR_t-36" value="&lt;font style=&quot;font-size: 14px;&quot;&gt;Port&amp;nbsp; 80/443&lt;/font&gt;" style="text;html=1;align=center;verticalAlign=middle;resizable=0;points=[];autosize=1;strokeColor=none;fillColor=none;" vertex="1" parent="1">
          <mxGeometry x="330" y="600" width="100" height="30" as="geometry" />
        </mxCell>
        <mxCell id="-LqVjnXFQ1boyWuIeR_t-39" style="edgeStyle=orthogonalEdgeStyle;rounded=0;orthogonalLoop=1;jettySize=auto;html=1;exitX=1;exitY=0.5;exitDx=0;exitDy=0;exitPerimeter=0;curved=1;" edge="1" parent="1" source="-LqVjnXFQ1boyWuIeR_t-23" target="-LqVjnXFQ1boyWuIeR_t-18">
          <mxGeometry relative="1" as="geometry">
            <Array as="points">
              <mxPoint x="298" y="330" />
              <mxPoint x="660" y="330" />
            </Array>
          </mxGeometry>
        </mxCell>
        <mxCell id="-LqVjnXFQ1boyWuIeR_t-41" style="edgeStyle=orthogonalEdgeStyle;rounded=0;orthogonalLoop=1;jettySize=auto;html=1;entryX=0.5;entryY=1;entryDx=0;entryDy=0;entryPerimeter=0;" edge="1" parent="1" source="-LqVjnXFQ1boyWuIeR_t-30" target="-LqVjnXFQ1boyWuIeR_t-22">
          <mxGeometry relative="1" as="geometry" />
        </mxCell>
        <mxCell id="-LqVjnXFQ1boyWuIeR_t-42" value="&lt;font style=&quot;font-size: 14px;&quot;&gt;Internet Gateway&lt;/font&gt;" style="text;html=1;align=center;verticalAlign=middle;resizable=0;points=[];autosize=1;strokeColor=none;fillColor=none;" vertex="1" parent="1">
          <mxGeometry x="470" y="490" width="130" height="30" as="geometry" />
        </mxCell>
      </root>
    </mxGraphModel>
  </diagram>
</mxfile>
